<svg width="607" height="512" viewBox="0 0 607 512" fill="none" xmlns="http://www.w3.org/2000/svg">
<path d="M250.857 158.074C253.606 158.074 256.355 158.428 258.885 159.322C266.004 161.839 269.998 164.754 273.446 170.437C274.836 172.727 275.365 175.299 275.365 177.864V426.901C275.365 429.267 275.814 431.639 276.998 433.79C279.911 439.083 283.288 441.906 289.558 444.18C292.006 445.068 294.688 445.39 297.361 445.39H311.352C314.468 445.39 317.604 444.96 320.353 443.742C325.611 441.41 328.266 438.759 330.378 434.4C331.304 432.49 331.635 430.424 331.635 428.365V381.996C331.635 379.22 332.199 376.411 333.922 374.032C335.58 371.744 337.374 370.259 339.973 369.113C342.28 368.095 344.94 367.845 347.553 367.845H590.641C593.541 367.845 596.465 368.203 599.058 369.283C603.418 371.098 605.376 373.101 607 376.792V492.117C607 503.098 596.28 512 583.055 512H23.9448C10.7204 512 0 503.098 0 492.117V224.186L71.8343 163.542C75.7167 160.262 78.112 158.739 83.8067 158.074H250.857Z" fill="#7F22FE"/>
<path d="M592.633 276.381C600.568 276.381 607 281.722 607 288.311V316.148C607 322.736 600.568 328.078 592.633 328.078H346.002C338.067 328.078 331.635 322.736 331.635 316.148V288.311C331.635 281.722 338.067 276.381 346.002 276.381H592.633Z" fill="#7F22FE"/>
<path d="M592.633 184.917C600.568 184.917 607 190.258 607 196.847V224.683C607 231.272 600.568 236.614 592.633 236.614H346.002C338.067 236.614 331.635 231.272 331.635 224.683V196.847C331.635 190.258 338.067 184.917 346.002 184.917H592.633Z" fill="#7F22FE"/>
<path d="M180.184 0C185.431 0.462109 187.766 1.35574 190.96 3.9767L259.202 61.6388C263.345 65.3419 266.509 66.9468 272.385 68.1534C273.959 68.4767 275.583 68.598 277.205 68.5981H583.055C596.28 68.5981 607 77.5002 607 88.4816V122.283L69.4398 120.295C63.9871 120.721 61.4266 121.929 57.4675 125.266L0 173.981V19.8835C0 8.90214 10.7204 0 23.9448 0H180.184Z" fill="#7F22FE"/>
</svg>
